<?xml version="1.0" standalone="no"?>
<!DOCTYPE svg PUBLIC "-//W3C//DTD SVG 20010904//EN"
 "http://www.w3.org/TR/2001/REC-SVG-20010904/DTD/svg10.dtd">
<svg version="1.0" xmlns="http://www.w3.org/2000/svg"
 width="350.000000pt" height="697.000000pt" viewBox="0 0 350.000000 697.000000"
 preserveAspectRatio="xMidYMid meet">

<g transform="translate(0.000000,697.000000) scale(0.100000,-0.100000)"
fill="#000000" stroke="none">
<path d="M1815 6938 c-64 -76 -134 -257 -155 -407 -17 -110 -8 -314 17 -408
11 -40 16 -73 12 -73 -8 0 -182 187 -270 290 -127 147 -243 319 -319 470 -22
44 -42 80 -45 80 -9 0 68 -207 105 -280 55 -109 160 -262 289 -423 61 -75 111
-138 111 -140 0 -1 -66 -2 -147 -2 -175 0 -242 -15 -378 -80 -109 -53 -186
-113 -260 -202 -62 -76 -70 -97 -22 -61 158 118 259 176 387 219 81 27 113 33
221 37 109 4 137 2 196 -16 115 -35 190 -97 242 -199 27 -53 27 -83 0 -112
-18 -19 -28 -22 -61 -17 -47 8 -109 38 -159 77 -53 41 -56 36 -12 -19 81 -102
170 -156 276 -168 51 -6 62 -11 91 -45 33 -40 62 -111 51 -129 -17 -27 -89 5
-189 83 l-38 31 16 -32 c20 -38 81 -99 120 -119 17 -9 53 -23 80 -33 50 -17
51 -18 58 -66 13 -84 21 -231 14 -258 -11 -44 -40 -32 -91 37 -26 34 -68 97
-93 140 -25 42 -47 76 -49 74 -5 -6 30 -95 68 -168 16 -34 28 -63 26 -66 -7
-7 -127 50 -188 89 -30 19 -80 56 -111 81 -32 26 -58 44 -58 40 0 -17 145
-177 208 -229 89 -74 225 -140 325 -159 87 -16 223 -20 231 -6 3 5 -14 14 -38
21 -54 15 -106 45 -106 62 0 6 11 23 25 38 l24 25 -29 59 c-22 42 -30 73 -30
110 l0 50 61 -59 c68 -68 146 -183 196 -293 21 -45 49 -86 71 -105 63 -55 100
-98 222 -257 65 -85 135 -171 156 -190 31 -29 28 -22 -23 45 -32 44 -101 142
-153 218 -51 76 -118 165 -147 198 -59 66 -75 95 -126 220 -39 98 -102 200
-170 277 -26 29 -47 57 -47 63 0 5 7 25 14 44 24 57 56 42 56 -26 0 -34 11
-38 25 -7 6 12 15 23 20 25 14 4 45 -49 45 -79 0 -12 4 -29 9 -37 8 -12 12
-12 25 -2 28 23 46 6 46 -45 0 -37 3 -45 15 -40 38 14 85 -35 85 -89 0 -34 13
-31 41 10 46 67 72 53 84 -43 16 -137 60 -302 85 -317 13 -8 13 -7 -5 62 -35
133 -1 289 85 386 l29 34 -37 35 c-20 20 -63 50 -94 68 -93 52 -223 233 -289
404 -30 77 -31 86 -26 186 6 131 37 229 113 357 29 50 54 95 54 99 0 15 -82
-71 -126 -133 -49 -68 -112 -197 -140 -285 -10 -32 -20 -58 -24 -58 -12 0 -70
106 -90 165 -38 110 -42 199 -15 350 10 56 -35 -54 -57 -138 -16 -62 -19 -103
-16 -202 l3 -124 -33 32 c-67 64 -112 197 -112 327 0 133 48 228 183 363 l60
60 -53 -29 c-78 -42 -169 -136 -213 -221 -39 -75 -62 -161 -73 -278 l-6 -70
-29 55 c-129 249 -131 679 -3 848 32 41 14 42 -21 0z m509 -1392 c61 -61 146
-189 134 -201 -2 -2 -30 19 -63 46 -33 27 -78 56 -100 65 -30 11 -41 21 -42
37 -4 44 -15 92 -29 120 -15 28 -15 28 7 16 13 -6 54 -44 93 -83z"/>
<path d="M1313 5930 c-132 -20 -288 -85 -435 -182 -43 -28 -78 -52 -78 -53 0
-2 71 21 157 51 196 66 308 87 441 82 l99 -3 70 -65 c99 -94 169 -122 196 -79
22 35 -30 128 -100 179 -82 61 -227 90 -350 70z"/>
<path d="M1086 5664 c-347 -63 -626 -183 -828 -358 -66 -57 -153 -160 -168
-200 -9 -26 -6 -24 41 18 65 59 171 110 279 135 107 25 220 40 220 29 0 -4 -4
-8 -9 -8 -18 0 -173 -154 -216 -214 -121 -171 -195 -414 -195 -636 l0 -85 31
90 c38 111 94 218 166 315 l55 75 -6 -40 c-25 -157 -28 -215 -23 -375 5 -175
33 -374 76 -550 21 -87 23 -81 40 80 10 105 36 225 63 290 l15 35 32 -105 c66
-210 186 -403 356 -570 l87 -85 -65 96 c-85 126 -133 255 -118 317 6 21 9 19
44 -28 206 -275 466 -500 717 -618 157 -74 166 -75 88 -3 -37 34 -91 92 -120
128 -61 77 -189 266 -183 271 2 2 34 -14 72 -37 115 -68 221 -108 369 -140
302 -64 477 -140 618 -271 41 -37 46 -40 28 -14 -38 56 -190 191 -281 252 -49
33 -152 95 -227 138 l-138 78 250 35 c204 30 237 36 184 38 -468 17 -701 48
-923 124 -338 115 -580 318 -675 566 -45 117 -56 187 -49 321 21 436 260 743
684 882 46 15 80 30 76 33 -12 12 -287 5 -367 -9z"/>
<path d="M1449 5571 c-253 -111 -494 -290 -598 -447 -60 -89 -88 -161 -109
-277 -15 -81 -14 -92 2 -164 44 -185 120 -311 283 -470 63 -62 119 -113 125
-113 6 0 -27 39 -73 88 -147 155 -201 261 -201 395 -1 85 15 122 27 65 29
-134 125 -299 240 -413 62 -62 257 -205 279 -205 3 0 -2 17 -13 38 -22 43 -46
127 -56 192 -8 58 5 43 35 -40 29 -82 74 -172 94 -189 10 -9 4 12 -16 54 -26
57 -32 83 -36 165 -5 97 10 200 29 200 5 0 9 -4 9 -10 0 -17 28 -11 39 8 10
16 12 16 26 -2 27 -35 56 -127 66 -210 10 -82 0 -217 -21 -272 -14 -37 -13
-49 4 -35 32 26 58 133 63 256 6 126 -3 191 -34 260 -10 22 -18 59 -18 82 0
37 3 43 25 48 21 6 31 0 61 -33 111 -126 167 -358 126 -519 -20 -77 -1 -54 25
30 28 91 30 258 4 357 -22 85 -65 177 -104 221 -23 26 -28 39 -20 47 17 17 2
40 -36 59 -33 15 -37 15 -54 0 -30 -27 -42 -21 -42 22 0 59 14 64 104 41 129
-33 207 -81 327 -200 106 -105 112 -105 33 0 -91 120 -240 239 -364 290 -30
13 -62 31 -70 41 -15 17 -79 59 -91 59 -4 0 -10 -12 -13 -26 -6 -24 -10 -26
-52 -22 l-46 3 7 -83 c8 -96 -4 -126 -55 -137 -23 -5 -29 -11 -26 -23 37 -122
47 -235 23 -282 -19 -38 -56 -37 -108 2 -122 94 -185 278 -156 463 5 36 5 45
-3 33 -5 -9 -25 -26 -44 -37 -57 -35 -86 -9 -86 78 l0 51 -46 -36 c-59 -45
-74 -34 -49 33 41 111 128 235 196 280 l41 27 19 -23 c15 -18 19 -40 19 -105
l0 -81 41 75 c95 174 193 273 385 386 16 10 17 13 5 28 -18 22 -23 21 -122
-23z"/>
<path d="M666 3883 c-3 -21 -9 -94 -13 -163 l-6 -125 -19 41 c-10 23 -24 77
-31 120 l-14 79 -8 -60 c-12 -86 9 -256 50 -418 19 -76 35 -143 35 -150 -1
-20 -80 74 -106 126 -14 26 -26 47 -28 47 -7 0 26 -134 51 -210 64 -187 155
-317 313 -443 l35 -28 -60 5 c-33 2 -71 7 -85 11 l-25 7 25 -22 c53 -45 110
-64 198 -65 59 0 82 -3 82 -13 0 -7 12 -17 27 -23 37 -14 71 3 79 38 3 15 7
33 9 39 4 13 61 24 131 24 110 0 221 -36 302 -98 47 -35 47 -30 -1 31 -68 88
-171 132 -346 147 -64 6 -129 13 -146 17 -29 5 -29 6 -8 22 11 10 30 35 41 57
29 56 56 78 157 126 78 36 102 43 177 47 47 3 90 9 94 14 4 4 3 7 -2 7 -5 0
-37 4 -71 9 -119 18 -261 -17 -350 -85 -26 -19 -37 -23 -52 -15 -12 7 -30 7
-51 1 -28 -8 -30 -7 -19 6 7 9 24 20 37 25 22 9 24 14 19 53 -6 44 -6 45 57
104 88 82 159 115 258 120 52 3 92 -1 122 -11 33 -11 43 -12 40 -3 -19 48
-182 73 -286 42 -74 -21 -171 -88 -217 -147 -20 -26 -45 -51 -56 -55 -39 -13
-55 -34 -45 -60 8 -19 4 -29 -18 -53 -15 -15 -37 -34 -49 -40 -21 -10 -22 -8
-28 42 -8 59 9 224 29 290 l13 42 7 -50 c15 -102 22 -104 29 -9 4 50 12 114
18 143 l11 51 -50 54 c-68 75 -115 148 -179 281 -30 63 -58 115 -63 115 -4 0
-10 -17 -14 -37z"/>
<path d="M2250 3592 c517 -181 821 -464 896 -831 13 -66 15 -116 11 -225 -4
-126 -8 -151 -37 -231 -148 -416 -445 -683 -874 -785 -43 -11 -81 -22 -85 -26
-3 -3 39 -3 94 0 277 19 452 86 608 234 l60 57 -7 -79 c-14 -162 -77 -297
-199 -423 -112 -117 -37 -64 92 65 150 150 245 286 315 450 110 260 140 564
82 815 -12 51 -12 55 3 47 23 -12 82 -76 129 -140 39 -53 142 -247 142 -268 0
-6 4 -13 9 -16 11 -7 -13 123 -49 259 -72 274 -198 502 -375 683 -51 50 -88
92 -84 92 16 0 188 -64 258 -96 41 -19 76 -33 77 -31 6 6 -146 131 -224 185
-97 67 -289 161 -411 202 -121 39 -312 78 -426 85 l-90 6 85 -29z"/>
<path d="M2420 3427 c0 -2 28 -28 63 -57 86 -72 152 -152 192 -234 29 -58 35
-79 35 -135 0 -36 -4 -82 -10 -101 l-9 -35 29 32 c16 18 35 52 41 75 l13 43 9
-60 c19 -115 -20 -305 -78 -381 -14 -19 -22 -34 -18 -34 4 0 48 31 97 68 49
37 98 73 108 81 31 23 32 4 3 -66 -38 -91 -88 -166 -139 -208 -42 -34 -178
-105 -206 -106 -8 0 -5 -4 8 -10 42 -17 185 -22 256 -10 38 7 70 10 73 8 7 -7
-137 -56 -212 -72 -38 -8 -119 -18 -178 -22 l-108 -6 82 -46 c91 -51 172 -119
194 -162 25 -47 17 -51 -29 -20 -103 71 -304 157 -409 175 l-38 7 46 -42 c56
-51 91 -109 116 -190 33 -104 29 -106 -67 -29 -47 38 -117 89 -155 115 -75 50
-238 139 -244 133 -2 -2 19 -32 46 -68 76 -97 172 -280 156 -296 -8 -8 -97 56
-272 195 -136 109 -315 237 -315 227 0 -3 25 -44 55 -90 55 -84 111 -193 103
-201 -2 -2 -75 69 -161 160 -145 151 -275 265 -304 265 -6 0 5 -28 25 -62 41
-69 74 -138 67 -138 -3 0 -65 50 -138 110 -123 103 -286 204 -303 187 -3 -3 7
-12 23 -21 32 -16 153 -140 153 -156 0 -6 -24 3 -52 19 -85 47 -181 72 -298
78 -58 2 -125 0 -150 -4 l-45 -9 86 -21 c47 -11 105 -29 128 -40 l43 -18 -104
-1 c-88 -1 -117 -6 -197 -33 -133 -45 -142 -53 -48 -46 50 4 77 2 77 -5 0 -5
-6 -10 -13 -10 -38 0 -281 -192 -308 -243 -12 -21 -12 -21 15 -4 14 9 37 24
51 33 33 21 32 16 -11 -47 -52 -78 -90 -157 -124 -257 -27 -81 -75 -291 -68
-298 2 -1 19 32 37 74 55 125 57 123 64 -45 12 -331 105 -571 324 -843 193
-238 387 -391 622 -486 143 -59 169 -55 48 6 -204 103 -397 261 -518 423 -56
76 -72 118 -49 132 21 13 158 -64 373 -208 120 -81 249 -163 287 -182 198
-100 377 -147 639 -170 87 -7 73 2 -32 20 -181 31 -375 110 -522 210 -38 26
-100 67 -139 91 -39 24 -68 44 -66 44 3 0 40 -7 82 -15 291 -55 645 -33 913
59 235 80 318 132 537 336 160 150 246 270 195 270 -15 0 -195 -106 -342 -202
-151 -98 -245 -151 -253 -144 -3 4 33 44 81 89 80 76 103 107 77 107 -5 0 -10
-5 -10 -12 0 -6 -40 -49 -90 -96 -53 -49 -90 -92 -90 -103 0 -38 43 -19 230
101 161 104 236 150 325 200 l59 34 -24 -35 c-42 -59 -193 -201 -277 -262
-352 -251 -818 -327 -1366 -221 -71 14 -140 29 -154 35 -50 19 -3 35 212 74
316 56 519 120 631 200 22 15 30 24 19 19 -504 -201 -1045 -216 -1229 -32 -27
26 -47 51 -44 54 4 3 30 -2 60 -11 245 -72 574 -14 806 144 89 60 84 66 -15
15 -161 -82 -365 -134 -525 -134 -287 0 -521 153 -624 408 -46 115 -48 310 -3
424 77 198 263 371 439 409 63 14 240 7 288 -11 46 -17 58 -44 32 -70 -18 -18
-33 -20 -158 -21 l-137 -1 50 -23 c105 -47 377 -95 546 -95 94 0 189 -11 183
-22 -10 -16 -99 -56 -152 -67 -29 -6 -103 -11 -165 -12 l-112 -1 90 -43 c204
-100 398 -144 671 -152 315 -9 501 30 706 151 225 132 365 302 434 531 24 79
27 106 27 225 0 162 -19 242 -91 394 -59 123 -142 235 -253 341 -93 89 -229
197 -229 182z"/>
<path d="M2225 903 c-22 -3 -44 -9 -50 -14 -6 -6 1 -7 20 -4 17 3 57 10 90 14
44 6 49 8 20 8 -22 0 -58 -2 -80 -4z"/>
</g>
</svg>
